<?xml version="1.0" encoding="UTF-8"?>
<!DOCTYPE svg PUBLIC "-//W3C//DTD SVG 1.1//EN" "http://www.w3.org/Graphics/SVG/1.1/DTD/svg11.dtd">
<svg xmlns="http://www.w3.org/2000/svg" version="1.1" width="1200px" height="676px" style="shape-rendering:geometricPrecision; text-rendering:geometricPrecision; image-rendering:optimizeQuality; fill-rule:evenodd; clip-rule:evenodd" xmlns:xlink="http://www.w3.org/1999/xlink">
<g><path style="opacity:1" fill="#fea721" d="M 601.5,97.5 C 610.59,84.0478 618.923,70.0478 626.5,55.5C 634.393,42.7281 642.56,30.0614 651,17.5C 655.211,12.4339 659.878,11.7672 665,15.5C 666.909,19.3153 668.242,23.3153 669,27.5C 674.588,61.6089 680.088,95.7755 685.5,130C 685.5,133.333 684.167,136 681.5,138C 677.5,138.667 673.5,138.667 669.5,138C 646.199,134.028 622.866,130.028 599.5,126C 596.093,124.261 593.76,121.594 592.5,118C 594.842,110.821 597.842,103.988 601.5,97.5 Z"/></g>
<g><path style="opacity:0.237" fill="#ffae1f" d="M 601.5,97.5 C 597.842,103.988 594.842,110.821 592.5,118C 593.76,121.594 596.093,124.261 599.5,126C 622.866,130.028 646.199,134.028 669.5,138C 673.5,138.667 677.5,138.667 681.5,138C 684.167,136 685.5,133.333 685.5,130C 680.088,95.7755 674.588,61.6089 669,27.5C 668.242,23.3153 666.909,19.3153 665,15.5C 659.878,11.7672 655.211,12.4339 651,17.5C 642.56,30.0614 634.393,42.7281 626.5,55.5C 633.203,42.4376 640.703,29.771 649,17.5C 652.27,12.5187 656.77,10.352 662.5,11C 662.167,11.3333 661.833,11.6667 661.5,12C 665.857,14.1853 668.69,17.6853 670,22.5C 675.632,58.3978 681.465,94.2311 687.5,130C 686.981,136.913 683.315,140.413 676.5,140.5C 649.041,137.367 622.041,132.534 595.5,126C 591.936,122.196 590.769,117.696 592,112.5C 594.279,106.765 597.445,101.765 601.5,97.5 Z"/></g>
<g><path style="opacity:0.778" fill="#ffae1f" d="M 626.5,55.5 C 618.923,70.0478 610.59,84.0478 601.5,97.5C 601.389,96.8826 601.056,96.3826 600.5,96C 608.664,82.9873 616.664,69.8206 624.5,56.5C 624.957,55.7025 625.624,55.3691 626.5,55.5 Z"/></g>
<g><path style="opacity:0.226" fill="#ffae1f" d="M 413.5,56.5 C 416.518,56.3354 419.518,56.502 422.5,57C 452.99,79.4116 483.657,101.578 514.5,123.5C 520.81,127.123 522.976,132.456 521,139.5C 520.215,141.286 519.049,142.786 517.5,144C 494.983,160.09 471.983,175.423 448.5,190C 442.49,190.908 438.656,188.408 437,182.5C 427.354,143.422 417.854,104.755 408.5,66.5C 409.418,62.715 411.085,59.3817 413.5,56.5 Z"/></g>
<g><path style="opacity:1" fill="#fea721" d="M 416.5,57.5 C 421.993,58.9132 426.993,61.4132 431.5,65C 460.052,86.5529 488.886,107.72 518,128.5C 521.407,133.13 521.241,137.63 517.5,142C 494.993,157.086 472.66,172.42 450.5,188C 447.833,188.667 445.167,188.667 442.5,188C 440.437,185.489 438.937,182.656 438,179.5C 429.219,144.614 420.552,109.614 412,74.5C 411.333,70.1667 411.333,65.8333 412,61.5C 413.25,59.8065 414.75,58.4732 416.5,57.5 Z"/></g>
<g><path style="opacity:1" fill="#fcc01a" d="M 696.5,184.5 C 726.97,205.774 749.637,233.44 764.5,267.5C 764.389,268.117 764.056,268.617 763.5,269C 767.88,279.087 771.047,289.254 773,299.5C 774.4,307.968 775.567,316.134 776.5,324C 775.554,332.193 775.554,340.527 776.5,349C 775.444,357.614 773.777,366.114 771.5,374.5C 771.863,375.183 772.196,375.85 772.5,376.5C 771.046,377.52 770.713,378.687 771.5,380C 770.464,383.171 769.13,386.171 767.5,389C 767.833,389.333 768.167,389.667 768.5,390C 766.26,394.203 764.927,398.37 764.5,402.5C 761.09,408.595 758.09,414.929 755.5,421.5C 747.337,433.811 738.67,445.811 729.5,457.5C 727.5,458.167 726.167,459.5 725.5,461.5C 723.5,462.167 722.167,463.5 721.5,465.5C 717.9,467.43 714.9,470.097 712.5,473.5C 697.452,484.698 681.118,493.864 663.5,501C 653.659,504.203 643.992,506.869 634.5,509C 623.532,510.347 613.198,511.514 603.5,512.5C 602.336,512.835 601.003,512.835 599.5,512.5C 590.47,511.499 580.803,510.332 570.5,509C 559.282,506.779 548.282,503.779 537.5,500C 526.165,495.33 515.165,490.163 504.5,484.5C 485.969,472.382 469.636,457.715 455.5,440.5C 423.703,388.899 416.537,333.899 434,275.5C 456.577,211.902 500.577,172.902 566,158.5C 567.398,159.051 568.732,159.384 570,159.5C 573.603,157.872 577.437,157.038 581.5,157C 622.308,153.811 660.642,162.978 696.5,184.5 Z"/></g>
<g><path style="opacity:1" fill="#fde267" d="M 527.5,198.5 C 538.109,197.298 546.609,200.632 553,208.5C 556.863,216.189 557.53,224.189 555,232.5C 547.556,255.076 534.889,274.076 517,289.5C 516.667,289.167 516.333,288.833 516,288.5C 513.698,290.574 511.032,291.908 508,292.5C 488.718,292.88 479.218,283.713 479.5,265C 483.161,240.348 494.827,220.348 514.5,205C 518.647,202.26 522.98,200.093 527.5,198.5 Z"/></g>
<g><path style="opacity:0.247" fill="#ffae1f" d="M 861.5,144.5 C 866.162,143.804 870.329,144.804 874,147.5C 875.879,150.8 875.879,154.134 874,157.5C 850.755,188.99 827.755,220.656 805,252.5C 801.74,256.378 797.74,257.378 793,255.5C 789.199,251.902 785.865,247.902 783,243.5C 769.667,222.833 756.333,202.167 743,181.5C 742.643,178.144 743.809,175.311 746.5,173C 748.935,172.147 751.269,171.147 753.5,170C 789.607,162.475 825.607,153.975 861.5,144.5 Z"/></g>
<g><path style="opacity:1" fill="#fea721" d="M 862.5,146.5 C 873.273,145.579 876.106,149.579 871,158.5C 848.946,188.221 827.279,218.221 806,248.5C 804.14,250.36 802.306,252.194 800.5,254C 798.167,254.667 795.833,254.667 793.5,254C 777.943,232.108 762.776,209.941 748,187.5C 745.212,183.33 744.879,178.997 747,174.5C 756.016,172.624 765.016,169.957 774,166.5C 774.414,166.957 774.914,167.291 775.5,167.5C 804.807,160.055 833.807,153.055 862.5,146.5 Z"/></g>
<g><path style="opacity:0.247" fill="#ffae1f" d="M 696.5,184.5 C 728.668,204.339 751.334,232.006 764.5,267.5C 749.637,233.44 726.97,205.774 696.5,184.5 Z"/></g>
<g><path style="opacity:1" fill="#fea721" d="M 325.5,309.5 C 318.834,304.162 311.501,299.829 303.5,296.5C 297.467,291.632 290.8,287.466 283.5,284C 277.285,278.292 276.952,272.292 282.5,266C 292.408,261.718 302.575,259.551 313,259.5C 322.035,257.304 331.202,255.471 340.5,254C 357.144,252.11 373.644,249.61 390,246.5C 390.333,246.833 390.667,247.167 391,247.5C 392.667,246.833 394.333,246.167 396,245.5C 397.964,245.94 400.13,246.774 402.5,248C 404.136,249.473 405.136,251.307 405.5,253.5C 406.188,255.869 406.522,258.036 406.5,260C 403.875,272.141 401.875,284.474 400.5,297C 399.017,303.393 397.35,309.726 395.5,316C 395.522,323.686 393.522,331.019 389.5,338C 387.722,338.704 385.888,339.204 384,339.5C 379.261,338.714 374.761,337.214 370.5,335C 355.768,325.969 340.768,317.469 325.5,309.5 Z"/></g>
<g><path style="opacity:0.257" fill="#ffae1f" d="M 696.5,184.5 C 660.642,162.978 622.308,153.811 581.5,157C 577.437,157.038 573.603,157.872 570,159.5C 568.732,159.384 567.398,159.051 566,158.5C 500.577,172.902 456.577,211.902 434,275.5C 416.537,333.899 423.703,388.899 455.5,440.5C 453.467,438.837 451.634,436.837 450,434.5C 423.207,388.965 416.207,339.632 429,286.5C 446.78,223.059 486.947,181.225 549.5,161C 594.809,149.618 638.476,153.951 680.5,174C 686.07,177.275 691.403,180.775 696.5,184.5 Z"/></g>
<g><path style="opacity:0.247" fill="#ffae1f" d="M 303.5,296.5 C 311.501,299.829 318.834,304.162 325.5,309.5C 322.54,308.241 319.54,306.908 316.5,305.5C 311.926,302.724 307.593,299.724 303.5,296.5 Z"/></g>
<g><path style="opacity:0.192" fill="#ffaf1f" d="M 764.5,267.5 C 772.18,285.261 776.68,303.927 778,323.5C 778.636,340.967 777.303,358.3 774,375.5C 773.617,376.056 773.117,376.389 772.5,376.5C 772.196,375.85 771.863,375.183 771.5,374.5C 773.777,366.114 775.444,357.614 776.5,349C 775.554,340.527 775.554,332.193 776.5,324C 775.567,316.134 774.4,307.968 773,299.5C 771.047,289.254 767.88,279.087 763.5,269C 764.056,268.617 764.389,268.117 764.5,267.5 Z"/></g>
<g><path style="opacity:0.222" fill="#ffae1f" d="M 325.5,309.5 C 340.768,317.469 355.768,325.969 370.5,335C 374.761,337.214 379.261,338.714 384,339.5C 385.888,339.204 387.722,338.704 389.5,338C 393.522,331.019 395.522,323.686 395.5,316C 397.35,309.726 399.017,303.393 400.5,297C 401.875,284.474 403.875,272.141 406.5,260C 406.522,258.036 406.188,255.869 405.5,253.5C 405.136,251.307 404.136,249.473 402.5,248C 400.13,246.774 397.964,245.94 396,245.5C 394.333,246.167 392.667,246.833 391,247.5C 390.667,247.167 390.333,246.833 390,246.5C 373.644,249.61 357.144,252.11 340.5,254C 331.202,255.471 322.035,257.304 313,259.5C 302.575,259.551 292.408,261.718 282.5,266C 276.952,272.292 277.285,278.292 283.5,284C 290.8,287.466 297.467,291.632 303.5,296.5C 296.723,293.225 290.056,289.725 283.5,286C 272.865,274.878 274.865,266.545 289.5,261C 295.118,260.2 300.618,259.033 306,257.5C 306.333,257.833 306.667,258.167 307,258.5C 334.311,253.688 361.644,249.021 389,244.5C 404.86,243.062 410.86,250.395 407,266.5C 403.187,288.897 398.854,311.23 394,333.5C 392.428,338.704 388.928,341.037 383.5,340.5C 379.673,340.392 376.007,339.558 372.5,338C 356.687,328.582 341.021,319.082 325.5,309.5 Z"/></g>
<g><path style="opacity:0.247" fill="#ffae1f" d="M 772.5,376.5 C 771.484,385.816 768.818,394.483 764.5,402.5C 764.927,398.37 766.26,394.203 768.5,390C 768.167,389.667 767.833,389.333 767.5,389C 769.13,386.171 770.464,383.171 771.5,380C 770.713,378.687 771.046,377.52 772.5,376.5 Z"/></g>
<g><path style="opacity:0.247" fill="#ffaf1f" d="M 764.5,402.5 C 762.818,409.529 759.818,415.862 755.5,421.5C 758.09,414.929 761.09,408.595 764.5,402.5 Z"/></g>
<g><path style="opacity:0.26" fill="#ffae1f" d="M 917.5,384.5 C 922.119,387.634 923.619,391.968 922,397.5C 920.093,401.039 917.26,403.539 913.5,405C 874.751,411.697 835.918,417.53 797,422.5C 794.986,420.817 793.32,418.817 792,416.5C 791.75,411.486 792.084,406.486 793,401.5C 797.203,378.712 801.203,356.045 805,333.5C 808.492,325.774 814.326,323.274 822.5,326C 854.336,343.839 885.669,362.505 916.5,382C 917.252,382.671 917.586,383.504 917.5,384.5 Z"/></g>
<g><path style="opacity:1" fill="#fea721" d="M 917.5,384.5 C 921.803,390.511 921.47,396.177 916.5,401.5C 914.051,401.98 911.885,402.98 910,404.5C 909.667,404.167 909.333,403.833 909,403.5C 900.662,405.167 892.328,406.834 884,408.5C 883.667,408.167 883.333,407.833 883,407.5C 855.666,412.084 828.333,416.751 801,421.5C 793.947,419.392 791.614,414.725 794,407.5C 798.182,384.233 802.182,360.9 806,337.5C 808.214,326.643 814.381,323.643 824.5,328.5C 855.721,346.938 886.721,365.604 917.5,384.5 Z"/></g>
<g><path style="opacity:0.373" fill="#ffae1f" d="M 755.5,421.5 C 750.373,431.801 744.206,441.468 737,450.5C 734.63,453.039 732.13,455.372 729.5,457.5C 738.67,445.811 747.337,433.811 755.5,421.5 Z"/></g>
<g><path style="opacity:0.265" fill="#ffaf1f" d="M 729.5,457.5 C 729.167,459.833 727.833,461.167 725.5,461.5C 726.167,459.5 727.5,458.167 729.5,457.5 Z"/></g>
<g><path style="opacity:0.373" fill="#ffae1f" d="M 455.5,440.5 C 469.636,457.715 485.969,472.382 504.5,484.5C 485.819,474.001 469.653,460.334 456,443.5C 455.517,442.552 455.351,441.552 455.5,440.5 Z"/></g>
<g><path style="opacity:0.265" fill="#ffaf1f" d="M 725.5,461.5 C 725.167,463.833 723.833,465.167 721.5,465.5C 722.167,463.5 723.5,462.167 725.5,461.5 Z"/></g>
<g><path style="opacity:0.373" fill="#ffae1f" d="M 721.5,465.5 C 719.126,468.874 716.126,471.541 712.5,473.5C 714.9,470.097 717.9,467.43 721.5,465.5 Z"/></g>
<g><path style="opacity:0.265" fill="#ffae1f" d="M 712.5,473.5 C 711.375,475.129 710.041,476.629 708.5,478C 676.232,502.224 641.232,513.724 603.5,512.5C 613.198,511.514 623.532,510.347 634.5,509C 643.992,506.869 653.659,504.203 663.5,501C 681.118,493.864 697.452,484.698 712.5,473.5 Z"/></g>
<g><path style="opacity:0.226" fill="#ffae1f" d="M 504.5,484.5 C 515.165,490.163 526.165,495.33 537.5,500C 548.282,503.779 559.282,506.779 570.5,509C 580.803,510.332 590.47,511.499 599.5,512.5C 567.805,512.812 537.471,504.645 508.5,488C 506.907,487.051 505.574,485.885 504.5,484.5 Z"/></g>
<g><path style="opacity:0.247" fill="#ffae1f" d="M 434.5,451.5 C 442.133,460.742 449.3,470.409 456,480.5C 458.272,485.356 457.772,489.856 454.5,494C 447.701,497.087 440.701,499.42 433.5,501C 403.462,507.995 373.795,515.328 344.5,523C 328.857,524.697 323.69,518.197 329,503.5C 350.956,473.088 372.789,442.588 394.5,412C 399.663,409.561 404.329,410.228 408.5,414C 417.777,426.105 426.444,438.605 434.5,451.5 Z"/></g>
<g><path style="opacity:1" fill="#fea721" d="M 434.5,451.5 C 441.478,462.152 448.478,472.819 455.5,483.5C 455.245,485.343 455.078,487.343 455,489.5C 454.477,491.223 453.477,492.556 452,493.5C 416.727,502.766 381.227,511.932 345.5,521C 339.285,522.54 333.785,521.373 329,517.5C 327.34,513.422 327.673,509.422 330,505.5C 351.159,476.517 371.825,447.184 392,417.5C 396.514,410.569 401.681,409.902 407.5,415.5C 415.842,428.15 424.842,440.15 434.5,451.5 Z"/></g>
<g><path style="opacity:0.722" fill="#ffae1f" d="M 519.5,524.5 C 522.545,524.704 525.379,524.704 528,524.5C 550.152,528.571 572.318,532.737 594.5,537C 599.518,538.227 604.185,540.227 608.5,543C 609.97,544.793 610.97,546.793 611.5,549C 610.368,552.73 609.034,556.396 607.5,560C 588.447,591.951 568.781,623.451 548.5,654.5C 543.564,659.845 538.564,660.678 533.5,657C 531.383,655.269 529.883,653.102 529,650.5C 523.26,612.691 517.76,575.191 512.5,538C 512.29,532.1 514.623,527.6 519.5,524.5 Z"/></g>
<g><path style="opacity:1" fill="#fea721" d="M 522.5,525.5 C 547.813,529.673 573.146,534.507 598.5,540C 609.411,543.188 611.911,549.688 606,559.5C 588.251,588.668 570.251,617.668 552,646.5C 549.861,649.939 547.361,653.106 544.5,656C 535.828,659.025 530.995,655.858 530,646.5C 524.707,609.992 519.207,573.492 513.5,537C 513.801,530.883 516.801,527.05 522.5,525.5 Z"/></g>
<g><path style="opacity:0.216" fill="#ffae1f" d="M 747.5,586.5 C 740.064,582.243 732.73,577.743 725.5,573C 714.009,564.421 702.343,556.088 690.5,548C 686.333,544.5 682.167,541 678,537.5C 676.898,532.816 677.564,528.483 680,524.5C 701.675,507.829 724.175,492.329 747.5,478C 756.97,474.485 762.804,477.652 765,487.5C 773.903,523.816 782.07,560.316 789.5,597C 788.074,606.501 782.741,609.501 773.5,606C 764.932,599.252 756.266,592.752 747.5,586.5 Z"/></g>
<g><path style="opacity:1" fill="#fea721" d="M 747.5,586.5 C 724.902,570.417 702.402,554.083 680,537.5C 678.121,534.2 678.121,530.866 680,527.5C 683.534,523.631 687.367,520.131 691.5,517C 710.328,504.085 729.328,491.419 748.5,479C 755.036,476.022 759.536,477.855 762,484.5C 771.472,522.832 780.305,560.332 788.5,597C 786.976,604.185 782.643,606.852 775.5,605C 766.538,598.192 757.205,592.026 747.5,586.5 Z"/></g>
</svg>
